<svg xmlns="http://www.w3.org/2000/svg" width="30.22" height="30.22" viewBox="0 0 30.22 30.22">
  <metadata><?xpacket begin="﻿" id="W5M0MpCehiHzreSzNTczkc9d"?>
<x:xmpmeta xmlns:x="adobe:ns:meta/" x:xmptk="Adobe XMP Core 5.6-c142 79.160924, 2017/07/13-01:06:39        ">
   <rdf:RDF xmlns:rdf="http://www.w3.org/1999/02/22-rdf-syntax-ns#">
      <rdf:Description rdf:about=""/>
   </rdf:RDF>
</x:xmpmeta>
                                                                                                    
                                                                                                    
                                                                                                    
                                                                                                    
                                                                                                    
                                                                                                    
                                                                                                    
                                                                                                    
                                                                                                    
                                                                                                    
                                                                                                    
                                                                                                    
                                                                                                    
                                                                                                    
                                                                                                    
                                                                                                    
                                                                                                    
                                                                                                    
                                                                                                    
                                                                                                    
                           
<?xpacket end="w"?></metadata>
<defs>
    <style>
      .cls-1 {
        fill: #6691df;
        fill-rule: evenodd;
      }
    </style>
  </defs>
  <path class="cls-1" d="M1370.07,6270.68h-10.36a3.009,3.009,0,0,0-3,3v10.36a3,3,0,0,0,3,3h10.36a3,3,0,0,0,3-3v-10.36A3.009,3.009,0,0,0,1370.07,6270.68Zm-5.18,13.57a5.385,5.385,0,1,1,5.39-5.39A5.4,5.4,0,0,1,1364.89,6284.25Zm5.56-9.66a1.275,1.275,0,1,1,1.27-1.27A1.28,1.28,0,0,1,1370.45,6274.59Zm-5.56,1.16a3.11,3.11,0,1,0,3.11,3.11A3.12,3.12,0,0,0,1364.89,6275.75Zm-15.1-11.99v30.21h30.2v-30.21h-30.2Zm25.56,20.28a5.288,5.288,0,0,1-5.28,5.28h-10.36a5.288,5.288,0,0,1-5.28-5.28v-10.36a5.279,5.279,0,0,1,5.28-5.27h10.36a5.279,5.279,0,0,1,5.28,5.27v10.36Z" transform="translate(-1349.78 -6263.75)"/>
</svg>
