<svg xmlns="http://www.w3.org/2000/svg" width="30.22" height="30.22" viewBox="0 0 30.22 30.22">
  <metadata><?xpacket begin="﻿" id="W5M0MpCehiHzreSzNTczkc9d"?>
<x:xmpmeta xmlns:x="adobe:ns:meta/" x:xmptk="Adobe XMP Core 5.6-c142 79.160924, 2017/07/13-01:06:39        ">
   <rdf:RDF xmlns:rdf="http://www.w3.org/1999/02/22-rdf-syntax-ns#">
      <rdf:Description rdf:about=""/>
   </rdf:RDF>
</x:xmpmeta>
                                                                                                    
                                                                                                    
                                                                                                    
                                                                                                    
                                                                                                    
                                                                                                    
                                                                                                    
                                                                                                    
                                                                                                    
                                                                                                    
                                                                                                    
                                                                                                    
                                                                                                    
                                                                                                    
                                                                                                    
                                                                                                    
                                                                                                    
                                                                                                    
                                                                                                    
                                                                                                    
                           
<?xpacket end="w"?></metadata>
<defs>
    <style>
      .cls-1 {
        fill: #6691df;
        fill-rule: evenodd;
      }
    </style>
  </defs>
  <path class="cls-1" d="M1267.79,6263.76v30.21h30.2v-30.21h-30.2Zm22.64,16.71a26.559,26.559,0,0,1,2.05,2.06,5.126,5.126,0,0,1,.73,1.06,0.751,0.751,0,0,1-.46,1.18h-3.04a2.38,2.38,0,0,1-1.95-.79c-0.42-.43-0.81-0.89-1.21-1.33a3.213,3.213,0,0,0-.55-0.49,0.639,0.639,0,0,0-1.02.25,3.312,3.312,0,0,0-.32,1.42,0.809,0.809,0,0,1-.97.94,7.8,7.8,0,0,1-4.36-.94,9.611,9.611,0,0,1-2.93-2.75,36.865,36.865,0,0,1-3.86-6.88c-0.25-.54-0.07-0.83.53-0.84,1-.02,1.99-0.02,2.98-0.01a0.873,0.873,0,0,1,.83.63,19.02,19.02,0,0,0,2.02,3.74,3.243,3.243,0,0,0,.77.84,0.467,0.467,0,0,0,.79-0.23,2.656,2.656,0,0,0,.17-0.79,11.5,11.5,0,0,0-.05-2.75,1.149,1.149,0,0,0-.98-1.05c-0.29-.06-0.24-0.16-0.1-0.33a1.076,1.076,0,0,1,.93-0.47h3.44a0.818,0.818,0,0,1,.74.9l0.01,3.83a1.092,1.092,0,0,0,.48.97,0.672,0.672,0,0,0,.69-0.34,11.977,11.977,0,0,0,1.94-2.97c0.23-.48.43-0.96,0.63-1.45a0.74,0.74,0,0,1,.77-0.54l3.32,0.01a2.81,2.81,0,0,1,.29.01,0.582,0.582,0,0,1,.54.89,8.272,8.272,0,0,1-1.32,2.28c-0.55.76-1.14,1.5-1.69,2.27A1.045,1.045,0,0,0,1290.43,6280.47Z" transform="translate(-1267.78 -6263.75)"/>
</svg>
