<svg xmlns="http://www.w3.org/2000/svg" width="30" height="30" viewBox="0 0 30 30">
  <metadata><?xpacket begin="﻿" id="W5M0MpCehiHzreSzNTczkc9d"?>
<x:xmpmeta xmlns:x="adobe:ns:meta/" x:xmptk="Adobe XMP Core 5.6-c142 79.160924, 2017/07/13-01:06:39        ">
   <rdf:RDF xmlns:rdf="http://www.w3.org/1999/02/22-rdf-syntax-ns#">
      <rdf:Description rdf:about=""/>
   </rdf:RDF>
</x:xmpmeta>
                                                                                                    
                                                                                                    
                                                                                                    
                                                                                                    
                                                                                                    
                                                                                                    
                                                                                                    
                                                                                                    
                                                                                                    
                                                                                                    
                                                                                                    
                                                                                                    
                                                                                                    
                                                                                                    
                                                                                                    
                                                                                                    
                                                                                                    
                                                                                                    
                                                                                                    
                                                                                                    
                           
<?xpacket end="w"?></metadata>
<defs>
    <style>
      .cls-1 {
        fill: #6691df;
        fill-rule: evenodd;
      }
    </style>
  </defs>
  <path class="cls-1" d="M1391,6264v30h30v-30h-30Zm10.66,22.59a7.6,7.6,0,1,1,0-15.19,7.042,7.042,0,0,1,5.1,2.06l-2.06,1.96a4.168,4.168,0,0,0-3.04-1.2,4.776,4.776,0,0,0,0,9.55,4.168,4.168,0,0,0,4.34-3.25h-4.34v-2.61h7.16a4.816,4.816,0,0,1,.11,1.3A6.979,6.979,0,0,1,1401.66,6286.59Zm16.27-6.51h-2.17v2.17h-2.17v-2.17h-2.17v-2.17h2.17v-2.17h2.17v2.17h2.17v2.17Z" transform="translate(-1391 -6264)"/>
</svg>
