<?xml version="1.0" encoding="utf-8"?>
<!-- Generator: Adobe Illustrator 22.1.0, SVG Export Plug-In . SVG Version: 6.00 Build 0)  -->
<svg version="1.1" id="Слой_1" xmlns="http://www.w3.org/2000/svg" xmlns:xlink="http://www.w3.org/1999/xlink" x="0px" y="0px"
	 viewBox="0 0 45 45" style="enable-background:new 0 0 45 45;" xml:space="preserve">
<style type="text/css">
	.st0{fill:none;stroke:#FFFFFF;stroke-width:3;}
	.st1{fill:#FDFDFD;}
</style>
<circle id="Ellipse_10_copy_8" class="st0" cx="22.5" cy="22.5" r="21"/>
<path id="Shape_625_copy_2" class="st1" d="M13.6,24.1L13.6,24.1l13.4,0l-4.2,4.3c-0.4,0.4-0.4,1.1,0,1.6l0.7,0.7
	c0.4,0.4,1.1,0.4,1.5,0c0,0,0,0,0,0l7.2-7.4c0.4-0.4,0.4-1.1,0-1.6L25,14.3c-0.4-0.4-1.1-0.4-1.5,0c0,0,0,0,0,0L22.8,15
	c-0.2,0.2-0.3,0.5-0.3,0.8c0,0.3,0.1,0.6,0.3,0.8l4.3,4.3H13.6c-0.6,0-1.1,0.5-1.1,1.1v1C12.5,23.6,13,24.1,13.6,24.1z"/>
</svg>
