<svg xmlns="http://www.w3.org/2000/svg" width="30.22" height="30.22" viewBox="0 0 30.22 30.22">
  <metadata><?xpacket begin="﻿" id="W5M0MpCehiHzreSzNTczkc9d"?>
<x:xmpmeta xmlns:x="adobe:ns:meta/" x:xmptk="Adobe XMP Core 5.6-c142 79.160924, 2017/07/13-01:06:39        ">
   <rdf:RDF xmlns:rdf="http://www.w3.org/1999/02/22-rdf-syntax-ns#">
      <rdf:Description rdf:about=""/>
   </rdf:RDF>
</x:xmpmeta>
                                                                                                    
                                                                                                    
                                                                                                    
                                                                                                    
                                                                                                    
                                                                                                    
                                                                                                    
                                                                                                    
                                                                                                    
                                                                                                    
                                                                                                    
                                                                                                    
                                                                                                    
                                                                                                    
                                                                                                    
                                                                                                    
                                                                                                    
                                                                                                    
                                                                                                    
                                                                                                    
                           
<?xpacket end="w"?></metadata>
<defs>
    <style>
      .cls-1 {
        fill: #6691df;
        fill-rule: evenodd;
      }
    </style>
  </defs>
  <path class="cls-1" d="M1308.79,6263.76v30.21h30.2v-30.21h-30.2Zm15.12,4.11a5.415,5.415,0,1,1-5.43,5.4A5.41,5.41,0,0,1,1323.91,6267.87Zm6.07,12.95a6.658,6.658,0,0,1-2.35,1.52,10.8,10.8,0,0,1-2.66.59c0.14,0.15.2,0.23,0.29,0.31,1.23,1.24,2.47,2.47,3.69,3.71a1.225,1.225,0,0,1,.28,1.44,1.478,1.478,0,0,1-1.37.86,1.323,1.323,0,0,1-.86-0.45c-0.93-.93-1.88-1.85-2.79-2.8-0.27-.28-0.39-0.23-0.63.01-0.93.97-1.88,1.91-2.84,2.86a1.185,1.185,0,0,1-1.44.25,1.45,1.45,0,0,1-.84-1.34,1.348,1.348,0,0,1,.45-0.89q1.83-1.83,3.65-3.66c0.08-.08.16-0.17,0.28-0.29a8.4,8.4,0,0,1-4.44-1.59,4.22,4.22,0,0,1-.46-0.38,1.262,1.262,0,0,1-.18-1.79,1.276,1.276,0,0,1,1.68-.38,2.774,2.774,0,0,1,.37.22,7.273,7.273,0,0,0,8.06.07,2.068,2.068,0,0,1,.78-0.4,1.227,1.227,0,0,1,1.41.56A1.194,1.194,0,0,1,1329.98,6280.82Zm-6.08-4.89a2.65,2.65,0,1,0-2.66-2.62A2.633,2.633,0,0,0,1323.9,6275.93Z" transform="translate(-1308.78 -6263.75)"/>
</svg>
