<?xml version="1.0" encoding="utf-8"?>
<!-- Generator: Adobe Illustrator 22.1.0, SVG Export Plug-In . SVG Version: 6.00 Build 0)  -->
<svg version="1.1" id="Слой_1" xmlns="http://www.w3.org/2000/svg" xmlns:xlink="http://www.w3.org/1999/xlink" x="0px" y="0px"
	 viewBox="0 0 26 26" style="enable-background:new 0 0 26 26;" xml:space="preserve">
<style type="text/css">
	.st0{fill:#CE8F5A;}
</style>
<path class="st0" d="M25.3,22.3l-5.6-5.6c0,0-0.1-0.1-0.1-0.1c3.2-4.9,1.9-11.5-3.1-14.8C11.6-1.5,5-0.1,1.8,4.8
	c-3.2,4.9-1.9,11.5,3.1,14.8c3.6,2.3,8.2,2.3,11.7,0c0,0,0.1,0.1,0.1,0.1l5.6,5.6c0.8,0.8,2.2,0.8,3.1,0S26.2,23.1,25.3,22.3z
	 M10.7,17.7c-3.9,0-7-3.1-7-7c0-3.9,3.1-7,7-7c3.9,0,7,3.1,7,7C17.7,14.5,14.5,17.7,10.7,17.7L10.7,17.7z"/>
</svg>
