<svg id="Слой_1" data-name="Слой 1" xmlns="http://www.w3.org/2000/svg" width="112.5mm" height="16.99mm" viewBox="0 0 318.91 48.15">
  <defs>
    <style>
      .cls-1 {
        fill: #53311b;
      }
    </style>
  </defs>
  <title>logo</title>
  <g>
    <g>
      <g>
        <path class="cls-1" d="M22.8,13.5a1.11,1.11,0,0,1-.43-.7,1.17,1.17,0,0,1,.43-.71,1.17,1.17,0,0,1,.72-.43H34.46A8.29,8.29,0,0,1,40,13.47a5.86,5.86,0,0,1,2.11,4.67,5.84,5.84,0,0,1-.93,3.25,6.42,6.42,0,0,1-2.57,2.25A7,7,0,0,1,42.18,26,6.29,6.29,0,0,1,43.47,30a6.08,6.08,0,0,1-2.2,4.85,8.7,8.7,0,0,1-5.85,1.88H25.73V13.91H23.51A1.18,1.18,0,0,1,22.8,13.5ZM34.31,14H28.59v8.73h5.72a5.2,5.2,0,0,0,3.63-1.22,4.05,4.05,0,0,0,1.34-3.15,4.05,4.05,0,0,0-1.34-3.15A5.2,5.2,0,0,0,34.31,14Zm1,11H28.59v9.33h6.72a5.44,5.44,0,0,0,3.81-1.29,4.38,4.38,0,0,0,1.41-3.4,4.34,4.34,0,0,0-1.41-3.36A5.44,5.44,0,0,0,35.31,25Z"/>
        <path class="cls-1" d="M35.42,38.19H24.23V15.41h-.72a2.53,2.53,0,0,1-1.75-.83,2.55,2.55,0,0,1-.89-1.78A2.51,2.51,0,0,1,21.74,11a2.62,2.62,0,0,1,1.77-.87H34.46A9.77,9.77,0,0,1,41,12.33a7.32,7.32,0,0,1,2.63,5.81,7.34,7.34,0,0,1-1.17,4.07,7.61,7.61,0,0,1-.94,1.18,8,8,0,0,1,1.84,1.74A7.78,7.78,0,0,1,45,30a7.54,7.54,0,0,1-2.73,6A10.18,10.18,0,0,1,35.42,38.19Zm-5.33-5.32h5.22a4,4,0,0,0,2.8-.9A2.88,2.88,0,0,0,39,29.68a2.84,2.84,0,0,0-.92-2.25,4,4,0,0,0-2.8-.9H30.09Zm0-11.66h4.22a3.74,3.74,0,0,0,2.62-.83,2.56,2.56,0,0,0,.85-2,2.56,2.56,0,0,0-.85-2,3.74,3.74,0,0,0-2.62-.83H30.09Zm-6.33-7.95Z"/>
      </g>
      <g>
        <path class="cls-1" d="M54.91,36.69H52.65V13.91H50.44a1.18,1.18,0,0,1-.72-.41,1.11,1.11,0,0,1-.43-.7,1.17,1.17,0,0,1,.43-.71,1.17,1.17,0,0,1,.72-.43h5.08V31.9l15.3-20.24h2.25v25H70.21V16.45Z"/>
        <path class="cls-1" d="M74.57,38.19H68.71V20.92L55.65,38.19h-4.5V15.41h-.72a2.53,2.53,0,0,1-1.75-.83,2.55,2.55,0,0,1-.89-1.78A2.61,2.61,0,0,1,48.66,11a2.62,2.62,0,0,1,1.77-.87H57V27.43L70.07,10.16h4.5ZM50.68,13.26Z"/>
      </g>
      <g>
        <path class="cls-1" d="M94,11.66l10.8,24.07q0,.18-1.07.7a4.43,4.43,0,0,1-1.43.52L99.1,29.65H86.33l-3.22,7.29a4.57,4.57,0,0,1-1.41-.54q-1.09-.54-1.09-.68l9.87-21.81h-1.9a1.17,1.17,0,0,1-.72-.43q-.43-.43-.43-.68a1.17,1.17,0,0,1,.43-.71,1.17,1.17,0,0,1,.72-.43Zm-1.32,3.5L87.33,27.32h10.8Z"/>
        <path class="cls-1" d="M102.32,38.44h-1l-3.22-7.29H87.31l-3.22,7.29h-1A4.76,4.76,0,0,1,81,37.75c-1-.49-1.93-1-1.93-2V35.4l9.06-20a2.86,2.86,0,0,1-1.37-.82,2.53,2.53,0,0,1-.87-1.74A2.61,2.61,0,0,1,86.81,11a2.62,2.62,0,0,1,1.77-.87H95L106.32,35.4v.32c0,1.12-1,1.61-1.92,2A5,5,0,0,1,102.32,38.44ZM89.63,25.82h6.18l-3.11-7Zm-.81-12.56Z"/>
      </g>
      <g>
        <path class="cls-1" d="M113.75,13.5a1.11,1.11,0,0,1-.43-.7,1.18,1.18,0,0,1,.41-.71,1.11,1.11,0,0,1,.7-.43h18.13V34.37H136l-.29,8.58h-2.18l-.32-6.26H113l-.29,6.26H110.5l-.29-8.58H113a21,21,0,0,0,1.41-2.52,24.61,24.61,0,0,0,1.45-4.58,28.18,28.18,0,0,0,.75-6.6V13.91h-2.22A1.19,1.19,0,0,1,113.75,13.5ZM119.37,21a24.91,24.91,0,0,1-3.5,13.34H129.7V14H119.37Z"/>
        <path class="cls-1" d="M137.13,44.45h-5.06l-.32-6.26H114.4l-.29,6.26H109l-.39-11.58h3.55c.3-.5.59-1.06.89-1.67a23.41,23.41,0,0,0,1.34-4.28,26.84,26.84,0,0,0,.71-6.25V15.41h-.72a2.54,2.54,0,0,1-1.72-.83,2.55,2.55,0,0,1-.89-1.78,2.53,2.53,0,0,1,.83-1.75,2.55,2.55,0,0,1,1.78-.89h19.63V32.87h3.45ZM118.38,32.87h9.82V15.48h-7.33V21A27.44,27.44,0,0,1,118.38,32.87Z"/>
      </g>
      <g>
        <path class="cls-1" d="M149.79,33l1.43-2.68-9.55-17.66q0-.18,1.05-.7a4.4,4.4,0,0,1,1.38-.52l8.65,16.13,7.87-16.13a4.43,4.43,0,0,1,1.39.54q1.07.54,1.07.68L152.37,34a4.8,4.8,0,0,1-4.54,2.9,4.88,4.88,0,0,1-3.61-1.36,2.09,2.09,0,0,1,.55-1q.55-.7.8-.7a2.61,2.61,0,0,0,1.86.61A2.57,2.57,0,0,0,149.79,33Z"/>
        <path class="cls-1" d="M147.83,38.44a6.35,6.35,0,0,1-4.67-1.8l-.44-.44v-.62a3.16,3.16,0,0,1,.88-2,2.64,2.64,0,0,1,2-1.26h.6l.43.41a1.29,1.29,0,0,0,.83.2c.31,0,.68-.06,1-.72l1-2L140.18,13v-.38c0-1.11,1-1.61,1.89-2a4.83,4.83,0,0,1,2-.67h.9l7.69,14.34,7-14.34h.94a4.85,4.85,0,0,1,2.06.69c1,.49,1.9,1,1.9,2V13L153.71,34.72A6.3,6.3,0,0,1,147.83,38.44Zm-2.17-2.54h0Zm14.79-23Z"/>
      </g>
      <g>
        <path class="cls-1" d="M168.38,13.5a1.11,1.11,0,0,1-.43-.7,1.17,1.17,0,0,1,.43-.71,1.17,1.17,0,0,1,.72-.43h5.08V22.82l3.22-.29,9.08-11.12q.36,0,1.22.77t.86,1.13L179.9,23.82,189.09,35q0,.32-.86,1.11t-1.18.79L177.25,25l-3.08.29V36.69h-2.86V13.91H169.1A1.18,1.18,0,0,1,168.38,13.5Z"/>
        <path class="cls-1" d="M187.05,38.44h-.71L176.6,26.57l-.92.09V38.19h-5.86V15.41h-.72a2.52,2.52,0,0,1-1.75-.83h0a2.55,2.55,0,0,1-.89-1.78,2.61,2.61,0,0,1,.87-1.78,2.61,2.61,0,0,1,1.77-.87h6.58v11l1-.08,9.13-11.18h.71a3.42,3.42,0,0,1,2.22,1.15,3.22,3.22,0,0,1,1.36,2.24v.54l-8.21,10,8.75,10.69V35a3.17,3.17,0,0,1-1.35,2.21A3.45,3.45,0,0,1,187.05,38.44Zm-.42-2.92Zm.53-21.75Zm-1-.93Z"/>
      </g>
    </g>
    <g>
      <path class="cls-1" d="M224.73,14.09V11.66h13.48q.25,0,.68.45a1.24,1.24,0,0,1,.43.7v1.11l-6.62,7.69a4.6,4.6,0,0,1,.68,0,7.14,7.14,0,0,1,5.31,2A7.39,7.39,0,0,1,240.64,29a7.52,7.52,0,0,1-2.32,5.86,9.17,9.17,0,0,1-6.4,2.11,11.43,11.43,0,0,1-8.55-3.36q0-.36.66-1t1-.64a9,9,0,0,0,6.69,2.54A6.27,6.27,0,0,0,236.12,33a5.27,5.27,0,0,0,1.59-4.08,5.1,5.1,0,0,0-1.31-3.68,4.89,4.89,0,0,0-3.7-1.36,7.81,7.81,0,0,0-1.29.11q-.64.11-1,.2l-.43.09q-.25,0-.82-.57t-.57-.89l7.62-8.73Z"/>
      <path class="cls-1" d="M231.92,38.44a12.92,12.92,0,0,1-9.62-3.81l-.43-.44v-.61A3,3,0,0,1,223,31.5a3,3,0,0,1,2-1.07h.62l.44.44A7.54,7.54,0,0,0,231.7,33a4.81,4.81,0,0,0,3.4-1.07,3.81,3.81,0,0,0,1.11-3,3.64,3.64,0,0,0-.89-2.65,3.45,3.45,0,0,0-2.62-.9,6.4,6.4,0,0,0-1,.09l-1,.18a3.27,3.27,0,0,1-.76.13,2.75,2.75,0,0,1-1.88-1,2.9,2.9,0,0,1-1-2v-.56l5.82-6.66h-9.64V10.16h15a2.51,2.51,0,0,1,1.76.91,2.59,2.59,0,0,1,.85,1.74v1.67l-5,5.85a7.93,7.93,0,0,1,4,2.16A8.86,8.86,0,0,1,242.14,29a9,9,0,0,1-2.82,7A10.65,10.65,0,0,1,231.92,38.44ZM224.79,34ZM230,22.39Z"/>
    </g>
    <g>
      <path class="cls-1" d="M249.3,33.31a14.68,14.68,0,0,1-2.75-9.14A14.68,14.68,0,0,1,249.3,15a8.44,8.44,0,0,1,13.87,0,14.69,14.69,0,0,1,2.75,9.14,14.69,14.69,0,0,1-2.75,9.14,8.44,8.44,0,0,1-13.87,0Zm2.06-16.59a13.43,13.43,0,0,0-1.88,7.46,13.43,13.43,0,0,0,1.88,7.46,5.58,5.58,0,0,0,9.76,0A13.42,13.42,0,0,0,263,24.18a13.42,13.42,0,0,0-1.88-7.46,5.58,5.58,0,0,0-9.76,0Z"/>
      <path class="cls-1" d="M256.23,38.44a9.85,9.85,0,0,1-8.13-4.22h0a16.21,16.21,0,0,1-3.06-10,16.21,16.21,0,0,1,3.06-10,9.94,9.94,0,0,1,16.26,0,16.2,16.2,0,0,1,3.06,10,16.2,16.2,0,0,1-3.06,10A9.85,9.85,0,0,1,256.23,38.44Zm0-23.1a4.14,4.14,0,0,0-3.62,2.2h0A12,12,0,0,0,251,24.18a12,12,0,0,0,1.63,6.64,4.09,4.09,0,0,0,7.25,0,12,12,0,0,0,1.63-6.64,12,12,0,0,0-1.63-6.63A4.14,4.14,0,0,0,256.23,15.34Z"/>
    </g>
    <g>
      <path class="cls-1" d="M275,33.31a14.68,14.68,0,0,1-2.75-9.14A14.68,14.68,0,0,1,275,15a8.44,8.44,0,0,1,13.87,0,14.69,14.69,0,0,1,2.75,9.14,14.69,14.69,0,0,1-2.75,9.14,8.44,8.44,0,0,1-13.87,0Zm2.06-16.59a13.43,13.43,0,0,0-1.88,7.46,13.43,13.43,0,0,0,1.88,7.46,5.58,5.58,0,0,0,9.76,0,13.43,13.43,0,0,0,1.88-7.46,13.43,13.43,0,0,0-1.88-7.46,5.58,5.58,0,0,0-9.76,0Z"/>
      <path class="cls-1" d="M282,38.44a9.85,9.85,0,0,1-8.13-4.22h0a16.21,16.21,0,0,1-3.06-10,16.21,16.21,0,0,1,3.06-10,9.94,9.94,0,0,1,16.26,0,16.2,16.2,0,0,1,3.06,10,16.2,16.2,0,0,1-3.06,10A9.85,9.85,0,0,1,282,38.44Zm0-23.1a4.14,4.14,0,0,0-3.62,2.2h0a12,12,0,0,0-1.63,6.64,12,12,0,0,0,1.63,6.64,4.09,4.09,0,0,0,7.25,0,12,12,0,0,0,1.63-6.64,12,12,0,0,0-1.63-6.64A4.14,4.14,0,0,0,282,15.34Z"/>
    </g>
    <g>
      <path class="cls-1" d="M300.78,33.31A14.68,14.68,0,0,1,298,24.18,14.68,14.68,0,0,1,300.78,15a8.44,8.44,0,0,1,13.87,0,14.69,14.69,0,0,1,2.75,9.14,14.69,14.69,0,0,1-2.75,9.14,8.44,8.44,0,0,1-13.87,0Zm2.06-16.59A13.43,13.43,0,0,0,301,24.18a13.43,13.43,0,0,0,1.88,7.46,5.58,5.58,0,0,0,9.76,0,13.43,13.43,0,0,0,1.88-7.46,13.43,13.43,0,0,0-1.88-7.46,5.58,5.58,0,0,0-9.76,0Z"/>
      <path class="cls-1" d="M307.72,38.44a9.85,9.85,0,0,1-8.13-4.22h0a16.21,16.21,0,0,1-3.06-10,16.21,16.21,0,0,1,3.06-10,9.94,9.94,0,0,1,16.26,0,16.2,16.2,0,0,1,3.06,10,16.2,16.2,0,0,1-3.06,10A9.85,9.85,0,0,1,307.72,38.44Zm0-23.1a4.14,4.14,0,0,0-3.62,2.2h0a12,12,0,0,0-1.63,6.64,12,12,0,0,0,1.63,6.64,4.09,4.09,0,0,0,7.25,0A12,12,0,0,0,313,24.18a12,12,0,0,0-1.63-6.64A4.14,4.14,0,0,0,307.72,15.34Z"/>
    </g>
    <g>
      <path class="cls-1" d="M187.38,46.65H24.07a22.57,22.57,0,0,1,0-45.15H187.38a22.57,22.57,0,0,1,0,45.15ZM24.07,2.58a21.49,21.49,0,0,0,0,43H187.38a21.49,21.49,0,0,0,0-43Z"/>
      <path class="cls-1" d="M187.38,48.15H24.07A24.07,24.07,0,0,1,24.07,0H187.38a24.07,24.07,0,0,1,0,48.15ZM24.07,4.08a20,20,0,0,0,0,40H187.38a20,20,0,0,0,0-40Z"/>
    </g>
  </g>
</svg>
